<svg version="1.1" viewBox="0 0 128 128" xml:space="preserve" xmlns="http://www.w3.org/2000/svg"><defs><marker id="EmptyTriangleIn" overflow="visible" markerHeight="6.7330775" markerWidth="5.8241119" orient="auto-start-reverse" preserveAspectRatio="xMidYMid" viewBox="0 0 5.8241121 6.7330776"><path transform="scale(.5)" d="m5.77 0-8.65 5v-10z" fill="context-fill" fill-rule="evenodd" stroke="context-stroke" stroke-width="2"/></marker>
</defs>
<circle cx="64" cy="64" r="64" fill="#fc6f58" stroke-width=".25"/><polygon transform="matrix(.36025 0 0 .32451 -28.603 -16.561)" points="145.67 391.33 373.23 391.33 373.23 180.72 299.39 106.88 145.67 106.88" fill="#ffd15d"/><polygon transform="matrix(.36025 0 0 .32451 -28.603 -16.561)" points="255.42 106.88 255.42 391.33 373.23 391.33 373.23 180.72 299.39 106.88" fill="#f9b54c"/><polygon transform="matrix(.36025 0 0 .32451 -28.603 -16.561)" points="373.23 180.72 299.39 106.88 299.39 180.72" fill="#fff"/><ellipse cx="38.368" cy="53.046" rx="8.0735" ry="7.2726" fill="#fd8469" stroke-width=".34191"/><polygon transform="matrix(.36025 0 0 .32451 -34.603 -18.561)" points="201.39 219.68 226.05 195.02 233.37 202.34 201.14 234.57 185.42 217.72 192.98 210.67" fill="#57442f"/><ellipse cx="38.368" cy="84.736" rx="8.0735" ry="7.2726" fill="#fd8469" stroke-width=".34191"/><polygon transform="matrix(.36025 0 0 .32451 -34.603 -14.561)" points="201.39 305.02 226.05 280.36 233.37 287.67 201.14 319.9 185.42 303.06 192.98 296" fill="#57442f"/><rect x="58.863" y="51.368" width="30.741" height="3.3564" fill="#57442f" stroke-width=".34191"/><ellipse cx="38.985" cy="69.189" rx="8.0735" ry="7.2726" fill="#fd8469" stroke-width=".34191"/><g fill="#57442f"><polygon transform="matrix(.36025 0 0 .32451 -33.986 -2.4174)" points="201.14 234.57 185.42 217.72 192.98 210.67 201.39 219.68 226.05 195.02 233.37 202.34"/><rect x="59.48" y="67.511" width="30.741" height="3.3564" stroke-width=".34191"/><rect x="58.863" y="83.058" width="30.741" height="3.3564" stroke-width=".34191"/></g><ellipse cx="37.949" cy="100.98" rx="8.0735" ry="7.2726" fill="#fd8469" stroke-width=".34191"/><polygon transform="matrix(.36025 0 0 .32451 -35.022 1.6844)" points="226.05 280.36 233.37 287.67 201.14 319.9 185.42 303.06 192.98 296 201.39 305.02" fill="#57442f"/><rect x="58.444" y="99.304" width="30.741" height="3.3564" fill="#57442f" stroke-width=".34191"/>
<g transform="matrix(.99969 0 0 1.1163 2.0318 -3.9293)"><rect transform="matrix(.003405 .99999 -.99993 .012199 0 0)" x="43.301" y="-103.3" width="58.188" height="3.3566" fill="#57442f" stroke-width=".47001"/><path d="m101.7 44.887 0.10914 52.225" fill="none" marker-end="url(#EmptyTriangleIn)" marker-start="url(#EmptyTriangleIn)" stroke-opacity="0"/></g></svg>
